# AetherCraft generated Minecraft player reference mesh
mtllib player.mtl
o Head
v -4.0 24.0 -4.0
v 4.0 24.0 -4.0
v 4.0 32.0 -4.0
v -4.0 32.0 -4.0
v -4.0 24.0 4.0
v 4.0 24.0 4.0
v 4.0 32.0 4.0
v -4.0 32.0 4.0
f 1 2 3 4
f 5 8 7 6
f 1 5 6 2
f 4 3 7 8
f 2 6 7 3
f 1 4 8 5
o Body
v -4.0 12.0 -2.0
v 4.0 12.0 -2.0
v 4.0 24.0 -2.0
v -4.0 24.0 -2.0
v -4.0 12.0 2.0
v 4.0 12.0 2.0
v 4.0 24.0 2.0
v -4.0 24.0 2.0
f 9 10 11 12
f 13 16 15 14
f 9 13 14 10
f 12 11 15 16
f 10 14 15 11
f 9 12 16 13
o RightArm
v -7.0 12.0 -2.0
v -4.0 12.0 -2.0
v -4.0 24.0 -2.0
v -7.0 24.0 -2.0
v -7.0 12.0 2.0
v -4.0 12.0 2.0
v -4.0 24.0 2.0
v -7.0 24.0 2.0
f 17 18 19 20
f 21 24 23 22
f 17 21 22 18
f 20 19 23 24
f 18 22 23 19
f 17 20 24 21
o LeftArm
v 4.0 12.0 -2.0
v 7.0 12.0 -2.0
v 7.0 24.0 -2.0
v 4.0 24.0 -2.0
v 4.0 12.0 2.0
v 7.0 12.0 2.0
v 7.0 24.0 2.0
v 4.0 24.0 2.0
f 25 26 27 28
f 29 32 31 30
f 25 29 30 26
f 28 27 31 32
f 26 30 31 27
f 25 28 32 29
o RightLeg
v -4.0 0.0 -2.0
v 0.0 0.0 -2.0
v 0.0 12.0 -2.0
v -4.0 12.0 -2.0
v -4.0 0.0 2.0
v 0.0 0.0 2.0
v 0.0 12.0 2.0
v -4.0 12.0 2.0
f 33 34 35 36
f 37 40 39 38
f 33 37 38 34
f 36 35 39 40
f 34 38 39 35
f 33 36 40 37
o LeftLeg
v 0.0 0.0 -2.0
v 4.0 0.0 -2.0
v 4.0 12.0 -2.0
v 0.0 12.0 -2.0
v 0.0 0.0 2.0
v 4.0 0.0 2.0
v 4.0 12.0 2.0
v 0.0 12.0 2.0
f 41 42 43 44
f 45 48 47 46
f 41 45 46 42
f 44 43 47 48
f 42 46 47 43
f 41 44 48 45